<svg width="17" height="14" viewBox="0 0 17 14" fill="none" xmlns="http://www.w3.org/2000/svg">
<path d="M10.5001 10.4695H9.17686V6.14276C9.17686 6.06419 9.11258 5.99991 9.03401 5.99991H7.96258C7.88401 5.99991 7.81972 6.06419 7.81972 6.14276V10.4695H6.50008C6.38043 10.4695 6.31436 10.607 6.38758 10.6999L8.38758 13.2303C8.40094 13.2473 8.41801 13.2611 8.43751 13.2706C8.457 13.2801 8.4784 13.2851 8.50008 13.2851C8.52176 13.2851 8.54316 13.2801 8.56265 13.2706C8.58214 13.2611 8.59921 13.2473 8.61258 13.2303L10.6126 10.6999C10.6858 10.607 10.6197 10.4695 10.5001 10.4695Z" fill="white"/>
<path d="M13.8464 4.40201C13.0286 2.24487 10.9446 0.710938 8.50357 0.710938C6.0625 0.710938 3.97857 2.24308 3.16071 4.40022C1.63036 4.80201 0.5 6.19665 0.5 7.85379C0.5 9.82701 2.09821 11.4252 4.06964 11.4252H4.78571C4.86429 11.4252 4.92857 11.3609 4.92857 11.2824V10.2109C4.92857 10.1324 4.86429 10.0681 4.78571 10.0681H4.06964C3.46786 10.0681 2.90179 9.82879 2.48036 9.39487C2.06071 8.96272 1.8375 8.38058 1.85714 7.77701C1.87321 7.30558 2.03393 6.86272 2.325 6.48951C2.62321 6.10915 3.04107 5.83237 3.50536 5.70915L4.18214 5.53237L4.43036 4.87879C4.58393 4.47165 4.79821 4.09129 5.06786 3.74665C5.33406 3.40506 5.64938 3.10478 6.00357 2.85558C6.7375 2.33951 7.60179 2.06629 8.50357 2.06629C9.40536 2.06629 10.2696 2.33951 11.0036 2.85558C11.3589 3.10558 11.6732 3.40558 11.9393 3.74665C12.2089 4.09129 12.4232 4.47344 12.5768 4.87879L12.8232 5.53058L13.4982 5.70915C14.4661 5.96987 15.1429 6.85022 15.1429 7.85379C15.1429 8.44487 14.9125 9.00201 14.4946 9.41987C14.2897 9.62599 14.0459 9.78941 13.7774 9.90068C13.5089 10.0119 13.221 10.0688 12.9304 10.0681H12.2143C12.1357 10.0681 12.0714 10.1324 12.0714 10.2109V11.2824C12.0714 11.3609 12.1357 11.4252 12.2143 11.4252H12.9304C14.9018 11.4252 16.5 9.82701 16.5 7.85379C16.5 6.19844 15.3732 4.80558 13.8464 4.40201Z" fill="white"/>
</svg>
